<mxfile host="Electron" agent="Mozilla/5.0 (Windows NT 10.0; Win64; x64) AppleWebKit/537.36 (KHTML, like Gecko) draw.io/26.2.15 Chrome/134.0.6998.205 Electron/35.2.1 Safari/537.36" version="26.2.15">
  <diagram id="C5RBs43oDa-KdzZeNtuy" name="Page-1">
    <mxGraphModel dx="3734" dy="1790" grid="1" gridSize="10" guides="1" tooltips="1" connect="1" arrows="1" fold="1" page="1" pageScale="1" pageWidth="827" pageHeight="1169" math="0" shadow="0">
      <root>
        <mxCell id="WIyWlLk6GJQsqaUBKTNV-0" />
        <mxCell id="WIyWlLk6GJQsqaUBKTNV-1" parent="WIyWlLk6GJQsqaUBKTNV-0" />
        <mxCell id="iNKzjEWo3micGkkLstdR-3" value="Robo" style="swimlane;fontStyle=1;align=center;verticalAlign=top;childLayout=stackLayout;horizontal=1;startSize=26;horizontalStack=0;resizeParent=1;resizeParentMax=0;resizeLast=0;collapsible=1;marginBottom=0;whiteSpace=wrap;html=1;" vertex="1" parent="WIyWlLk6GJQsqaUBKTNV-1">
          <mxGeometry x="130" y="140" width="290" height="270" as="geometry" />
        </mxCell>
        <mxCell id="iNKzjEWo3micGkkLstdR-4" value="- nome : String&lt;div&gt;- direcao : String&lt;/div&gt;&lt;div&gt;- posicaoX : int&lt;/div&gt;&lt;div&gt;-posicaoY : int&lt;/div&gt;&lt;div&gt;- sensores : ArrayList&amp;lt;Sensor&amp;gt;&lt;/div&gt;" style="text;strokeColor=none;fillColor=none;align=left;verticalAlign=top;spacingLeft=4;spacingRight=4;overflow=hidden;rotatable=0;points=[[0,0.5],[1,0.5]];portConstraint=eastwest;whiteSpace=wrap;html=1;" vertex="1" parent="iNKzjEWo3micGkkLstdR-3">
          <mxGeometry y="26" width="290" height="84" as="geometry" />
        </mxCell>
        <mxCell id="iNKzjEWo3micGkkLstdR-5" value="" style="line;strokeWidth=1;fillColor=none;align=left;verticalAlign=middle;spacingTop=-1;spacingLeft=3;spacingRight=3;rotatable=0;labelPosition=right;points=[];portConstraint=eastwest;strokeColor=inherit;" vertex="1" parent="iNKzjEWo3micGkkLstdR-3">
          <mxGeometry y="110" width="290" height="8" as="geometry" />
        </mxCell>
        <mxCell id="iNKzjEWo3micGkkLstdR-6" value="+ Robo(nome, direcao, posicaoX, posicaoY)&amp;nbsp;&lt;div&gt;+ mover(deltaX, deltaY, ambiente) : void&lt;/div&gt;&lt;div&gt;+ exibirPosicao() : void&lt;/div&gt;&lt;div&gt;+ identificarObstaculo(ambiente) : void&lt;/div&gt;&lt;div&gt;+ getPosX() : int&lt;/div&gt;&lt;div&gt;+ getPosY() : int&lt;/div&gt;&lt;div&gt;+ getDirecao() : String&lt;/div&gt;&lt;div&gt;+ getNome() : String&lt;/div&gt;&lt;div&gt;+ adicionarSensor(s) : void&lt;/div&gt;&lt;div&gt;+ ativarSensores(ambiente) : void&lt;/div&gt;&lt;div&gt;&lt;div&gt;&lt;br&gt;&lt;/div&gt;&lt;/div&gt;" style="text;strokeColor=none;fillColor=none;align=left;verticalAlign=top;spacingLeft=4;spacingRight=4;overflow=hidden;rotatable=0;points=[[0,0.5],[1,0.5]];portConstraint=eastwest;whiteSpace=wrap;html=1;" vertex="1" parent="iNKzjEWo3micGkkLstdR-3">
          <mxGeometry y="118" width="290" height="152" as="geometry" />
        </mxCell>
        <mxCell id="iNKzjEWo3micGkkLstdR-9" value="" style="edgeStyle=elbowEdgeStyle;elbow=vertical;endArrow=classic;html=1;curved=0;rounded=0;endSize=8;startSize=8;" edge="1" parent="WIyWlLk6GJQsqaUBKTNV-1">
          <mxGeometry width="50" height="50" relative="1" as="geometry">
            <mxPoint x="230" y="460" as="sourcePoint" />
            <mxPoint x="280" y="410" as="targetPoint" />
          </mxGeometry>
        </mxCell>
        <mxCell id="iNKzjEWo3micGkkLstdR-10" value="" style="edgeStyle=elbowEdgeStyle;elbow=vertical;endArrow=classic;html=1;curved=0;rounded=0;endSize=8;startSize=8;" edge="1" parent="WIyWlLk6GJQsqaUBKTNV-1">
          <mxGeometry width="50" height="50" relative="1" as="geometry">
            <mxPoint x="330" y="460" as="sourcePoint" />
            <mxPoint x="280" y="410" as="targetPoint" />
          </mxGeometry>
        </mxCell>
        <mxCell id="iNKzjEWo3micGkkLstdR-11" value="RoboAereo" style="swimlane;fontStyle=1;align=center;verticalAlign=top;childLayout=stackLayout;horizontal=1;startSize=26;horizontalStack=0;resizeParent=1;resizeParentMax=0;resizeLast=0;collapsible=1;marginBottom=0;whiteSpace=wrap;html=1;" vertex="1" parent="WIyWlLk6GJQsqaUBKTNV-1">
          <mxGeometry x="-160" y="460" width="410" height="150" as="geometry" />
        </mxCell>
        <mxCell id="iNKzjEWo3micGkkLstdR-12" value="- altitude : int&lt;div&gt;- altitudeMaxima : int&lt;/div&gt;" style="text;strokeColor=none;fillColor=none;align=left;verticalAlign=top;spacingLeft=4;spacingRight=4;overflow=hidden;rotatable=0;points=[[0,0.5],[1,0.5]];portConstraint=eastwest;whiteSpace=wrap;html=1;" vertex="1" parent="iNKzjEWo3micGkkLstdR-11">
          <mxGeometry y="26" width="410" height="34" as="geometry" />
        </mxCell>
        <mxCell id="iNKzjEWo3micGkkLstdR-13" value="" style="line;strokeWidth=1;fillColor=none;align=left;verticalAlign=middle;spacingTop=-1;spacingLeft=3;spacingRight=3;rotatable=0;labelPosition=right;points=[];portConstraint=eastwest;strokeColor=inherit;" vertex="1" parent="iNKzjEWo3micGkkLstdR-11">
          <mxGeometry y="60" width="410" height="8" as="geometry" />
        </mxCell>
        <mxCell id="iNKzjEWo3micGkkLstdR-14" value="+ RoboAereo(nome, direcao, posicaoX, posicaoY, altitude, altitudeMaxima)&lt;div&gt;+ subir (metros, ambiente) : void&lt;/div&gt;&lt;div&gt;+ descer (metros) : void&lt;/div&gt;&lt;div&gt;+ exibirPosicaoAereo() : void&lt;/div&gt;&lt;div&gt;+ getAltitude() : int&lt;/div&gt;" style="text;strokeColor=none;fillColor=none;align=left;verticalAlign=top;spacingLeft=4;spacingRight=4;overflow=hidden;rotatable=0;points=[[0,0.5],[1,0.5]];portConstraint=eastwest;whiteSpace=wrap;html=1;" vertex="1" parent="iNKzjEWo3micGkkLstdR-11">
          <mxGeometry y="68" width="410" height="82" as="geometry" />
        </mxCell>
        <mxCell id="iNKzjEWo3micGkkLstdR-19" value="RoboTerrestre" style="swimlane;fontStyle=1;align=center;verticalAlign=top;childLayout=stackLayout;horizontal=1;startSize=26;horizontalStack=0;resizeParent=1;resizeParentMax=0;resizeLast=0;collapsible=1;marginBottom=0;whiteSpace=wrap;html=1;" vertex="1" parent="WIyWlLk6GJQsqaUBKTNV-1">
          <mxGeometry x="310" y="460" width="410" height="100" as="geometry" />
        </mxCell>
        <mxCell id="iNKzjEWo3micGkkLstdR-20" value="- velocidadeMaxima: int" style="text;strokeColor=none;fillColor=none;align=left;verticalAlign=top;spacingLeft=4;spacingRight=4;overflow=hidden;rotatable=0;points=[[0,0.5],[1,0.5]];portConstraint=eastwest;whiteSpace=wrap;html=1;" vertex="1" parent="iNKzjEWo3micGkkLstdR-19">
          <mxGeometry y="26" width="410" height="24" as="geometry" />
        </mxCell>
        <mxCell id="iNKzjEWo3micGkkLstdR-21" value="" style="line;strokeWidth=1;fillColor=none;align=left;verticalAlign=middle;spacingTop=-1;spacingLeft=3;spacingRight=3;rotatable=0;labelPosition=right;points=[];portConstraint=eastwest;strokeColor=inherit;" vertex="1" parent="iNKzjEWo3micGkkLstdR-19">
          <mxGeometry y="50" width="410" height="8" as="geometry" />
        </mxCell>
        <mxCell id="iNKzjEWo3micGkkLstdR-22" value="+ RoboTerrestre(nome, direcao, posicaoX, posicaoY, velocidadeMaxima)&lt;div&gt;+ mover(deltaX, deltaY, ambiente, velocidade): void&lt;br&gt;&lt;/div&gt;" style="text;strokeColor=none;fillColor=none;align=left;verticalAlign=top;spacingLeft=4;spacingRight=4;overflow=hidden;rotatable=0;points=[[0,0.5],[1,0.5]];portConstraint=eastwest;whiteSpace=wrap;html=1;" vertex="1" parent="iNKzjEWo3micGkkLstdR-19">
          <mxGeometry y="58" width="410" height="42" as="geometry" />
        </mxCell>
        <mxCell id="iNKzjEWo3micGkkLstdR-27" value="" style="edgeStyle=elbowEdgeStyle;elbow=vertical;endArrow=classic;html=1;curved=0;rounded=0;endSize=8;startSize=8;" edge="1" parent="WIyWlLk6GJQsqaUBKTNV-1">
          <mxGeometry width="50" height="50" relative="1" as="geometry">
            <mxPoint x="-10" y="660" as="sourcePoint" />
            <mxPoint x="40" y="610" as="targetPoint" />
          </mxGeometry>
        </mxCell>
        <mxCell id="iNKzjEWo3micGkkLstdR-28" value="RoboAereoFalcao" style="swimlane;fontStyle=1;align=center;verticalAlign=top;childLayout=stackLayout;horizontal=1;startSize=26;horizontalStack=0;resizeParent=1;resizeParentMax=0;resizeLast=0;collapsible=1;marginBottom=0;whiteSpace=wrap;html=1;" vertex="1" parent="WIyWlLk6GJQsqaUBKTNV-1">
          <mxGeometry x="-180" y="660" width="190" height="140" as="geometry" />
        </mxCell>
        <mxCell id="iNKzjEWo3micGkkLstdR-29" value="- alcanceVisual : int" style="text;strokeColor=none;fillColor=none;align=left;verticalAlign=top;spacingLeft=4;spacingRight=4;overflow=hidden;rotatable=0;points=[[0,0.5],[1,0.5]];portConstraint=eastwest;whiteSpace=wrap;html=1;" vertex="1" parent="iNKzjEWo3micGkkLstdR-28">
          <mxGeometry y="26" width="190" height="24" as="geometry" />
        </mxCell>
        <mxCell id="iNKzjEWo3micGkkLstdR-30" value="" style="line;strokeWidth=1;fillColor=none;align=left;verticalAlign=middle;spacingTop=-1;spacingLeft=3;spacingRight=3;rotatable=0;labelPosition=right;points=[];portConstraint=eastwest;strokeColor=inherit;" vertex="1" parent="iNKzjEWo3micGkkLstdR-28">
          <mxGeometry y="50" width="190" height="8" as="geometry" />
        </mxCell>
        <mxCell id="iNKzjEWo3micGkkLstdR-31" value="&lt;div&gt;+ RoboAereoFalcao(nome, direcao, posicaoX, posicaoY, altitude, altitudeMaxima, alcanceVisual)&lt;/div&gt;+ visao(ambiente) : void" style="text;strokeColor=none;fillColor=none;align=left;verticalAlign=top;spacingLeft=4;spacingRight=4;overflow=hidden;rotatable=0;points=[[0,0.5],[1,0.5]];portConstraint=eastwest;whiteSpace=wrap;html=1;" vertex="1" parent="iNKzjEWo3micGkkLstdR-28">
          <mxGeometry y="58" width="190" height="82" as="geometry" />
        </mxCell>
        <mxCell id="iNKzjEWo3micGkkLstdR-32" value="RoboAereoObservador" style="swimlane;fontStyle=1;align=center;verticalAlign=top;childLayout=stackLayout;horizontal=1;startSize=26;horizontalStack=0;resizeParent=1;resizeParentMax=0;resizeLast=0;collapsible=1;marginBottom=0;whiteSpace=wrap;html=1;" vertex="1" parent="WIyWlLk6GJQsqaUBKTNV-1">
          <mxGeometry x="70" y="660" width="190" height="130" as="geometry" />
        </mxCell>
        <mxCell id="iNKzjEWo3micGkkLstdR-33" value="- raioObservacao : int" style="text;strokeColor=none;fillColor=none;align=left;verticalAlign=top;spacingLeft=4;spacingRight=4;overflow=hidden;rotatable=0;points=[[0,0.5],[1,0.5]];portConstraint=eastwest;whiteSpace=wrap;html=1;" vertex="1" parent="iNKzjEWo3micGkkLstdR-32">
          <mxGeometry y="26" width="190" height="24" as="geometry" />
        </mxCell>
        <mxCell id="iNKzjEWo3micGkkLstdR-34" value="" style="line;strokeWidth=1;fillColor=none;align=left;verticalAlign=middle;spacingTop=-1;spacingLeft=3;spacingRight=3;rotatable=0;labelPosition=right;points=[];portConstraint=eastwest;strokeColor=inherit;" vertex="1" parent="iNKzjEWo3micGkkLstdR-32">
          <mxGeometry y="50" width="190" height="8" as="geometry" />
        </mxCell>
        <mxCell id="iNKzjEWo3micGkkLstdR-35" value="&lt;div&gt;+ RoboAereo(nome, direcao, posicaoX, posicaoY, altitude, altitudeMaxima, raioObservacao)&lt;/div&gt;+ observar(ambiente) : void" style="text;strokeColor=none;fillColor=none;align=left;verticalAlign=top;spacingLeft=4;spacingRight=4;overflow=hidden;rotatable=0;points=[[0,0.5],[1,0.5]];portConstraint=eastwest;whiteSpace=wrap;html=1;" vertex="1" parent="iNKzjEWo3micGkkLstdR-32">
          <mxGeometry y="58" width="190" height="72" as="geometry" />
        </mxCell>
        <mxCell id="iNKzjEWo3micGkkLstdR-37" style="edgeStyle=orthogonalEdgeStyle;rounded=0;orthogonalLoop=1;jettySize=auto;html=1;exitX=1;exitY=0.5;exitDx=0;exitDy=0;" edge="1" parent="iNKzjEWo3micGkkLstdR-32" source="iNKzjEWo3micGkkLstdR-33" target="iNKzjEWo3micGkkLstdR-33">
          <mxGeometry relative="1" as="geometry" />
        </mxCell>
        <mxCell id="iNKzjEWo3micGkkLstdR-36" value="" style="edgeStyle=elbowEdgeStyle;elbow=vertical;endArrow=classic;html=1;curved=0;rounded=0;endSize=8;startSize=8;" edge="1" parent="WIyWlLk6GJQsqaUBKTNV-1">
          <mxGeometry width="50" height="50" relative="1" as="geometry">
            <mxPoint x="90" y="660" as="sourcePoint" />
            <mxPoint x="40" y="610" as="targetPoint" />
          </mxGeometry>
        </mxCell>
        <mxCell id="iNKzjEWo3micGkkLstdR-39" value="" style="edgeStyle=elbowEdgeStyle;elbow=vertical;endArrow=classic;html=1;curved=0;rounded=0;endSize=8;startSize=8;" edge="1" parent="WIyWlLk6GJQsqaUBKTNV-1">
          <mxGeometry width="50" height="50" relative="1" as="geometry">
            <mxPoint x="470" y="610" as="sourcePoint" />
            <mxPoint x="520" y="560" as="targetPoint" />
          </mxGeometry>
        </mxCell>
        <mxCell id="iNKzjEWo3micGkkLstdR-40" value="RoboTerrestreExplorador" style="swimlane;fontStyle=1;align=center;verticalAlign=top;childLayout=stackLayout;horizontal=1;startSize=26;horizontalStack=0;resizeParent=1;resizeParentMax=0;resizeLast=0;collapsible=1;marginBottom=0;whiteSpace=wrap;html=1;" vertex="1" parent="WIyWlLk6GJQsqaUBKTNV-1">
          <mxGeometry x="350" y="610" width="170" height="160" as="geometry" />
        </mxCell>
        <mxCell id="iNKzjEWo3micGkkLstdR-41" value="- passosDados : int" style="text;strokeColor=none;fillColor=none;align=left;verticalAlign=top;spacingLeft=4;spacingRight=4;overflow=hidden;rotatable=0;points=[[0,0.5],[1,0.5]];portConstraint=eastwest;whiteSpace=wrap;html=1;" vertex="1" parent="iNKzjEWo3micGkkLstdR-40">
          <mxGeometry y="26" width="170" height="24" as="geometry" />
        </mxCell>
        <mxCell id="iNKzjEWo3micGkkLstdR-42" value="" style="line;strokeWidth=1;fillColor=none;align=left;verticalAlign=middle;spacingTop=-1;spacingLeft=3;spacingRight=3;rotatable=0;labelPosition=right;points=[];portConstraint=eastwest;strokeColor=inherit;" vertex="1" parent="iNKzjEWo3micGkkLstdR-40">
          <mxGeometry y="50" width="170" height="8" as="geometry" />
        </mxCell>
        <mxCell id="iNKzjEWo3micGkkLstdR-43" value="&lt;div&gt;+ RoboTerrestre(nome, direcao, posicaoX, posicaoY, velocidadeMaxima, passosDados)&lt;/div&gt;+ explorar(ambiente) : void&lt;div&gt;+ getPassosDados() : int&lt;/div&gt;" style="text;strokeColor=none;fillColor=none;align=left;verticalAlign=top;spacingLeft=4;spacingRight=4;overflow=hidden;rotatable=0;points=[[0,0.5],[1,0.5]];portConstraint=eastwest;whiteSpace=wrap;html=1;" vertex="1" parent="iNKzjEWo3micGkkLstdR-40">
          <mxGeometry y="58" width="170" height="102" as="geometry" />
        </mxCell>
        <mxCell id="iNKzjEWo3micGkkLstdR-44" value="RoboTerrestreDestruidor" style="swimlane;fontStyle=1;align=center;verticalAlign=top;childLayout=stackLayout;horizontal=1;startSize=26;horizontalStack=0;resizeParent=1;resizeParentMax=0;resizeLast=0;collapsible=1;marginBottom=0;whiteSpace=wrap;html=1;" vertex="1" parent="WIyWlLk6GJQsqaUBKTNV-1">
          <mxGeometry x="560" y="610" width="180" height="160" as="geometry" />
        </mxCell>
        <mxCell id="iNKzjEWo3micGkkLstdR-45" value="- forcaDestruicao : int" style="text;strokeColor=none;fillColor=none;align=left;verticalAlign=top;spacingLeft=4;spacingRight=4;overflow=hidden;rotatable=0;points=[[0,0.5],[1,0.5]];portConstraint=eastwest;whiteSpace=wrap;html=1;" vertex="1" parent="iNKzjEWo3micGkkLstdR-44">
          <mxGeometry y="26" width="180" height="24" as="geometry" />
        </mxCell>
        <mxCell id="iNKzjEWo3micGkkLstdR-46" value="" style="line;strokeWidth=1;fillColor=none;align=left;verticalAlign=middle;spacingTop=-1;spacingLeft=3;spacingRight=3;rotatable=0;labelPosition=right;points=[];portConstraint=eastwest;strokeColor=inherit;" vertex="1" parent="iNKzjEWo3micGkkLstdR-44">
          <mxGeometry y="50" width="180" height="8" as="geometry" />
        </mxCell>
        <mxCell id="iNKzjEWo3micGkkLstdR-47" value="&lt;div&gt;+ RoboTerrestre(nome, direcao, posicaoX, posicaoY, velocidadeMaxima, forcaDestruicao)&lt;/div&gt;+ destruirObstaculo(ambiente) : void" style="text;strokeColor=none;fillColor=none;align=left;verticalAlign=top;spacingLeft=4;spacingRight=4;overflow=hidden;rotatable=0;points=[[0,0.5],[1,0.5]];portConstraint=eastwest;whiteSpace=wrap;html=1;" vertex="1" parent="iNKzjEWo3micGkkLstdR-44">
          <mxGeometry y="58" width="180" height="102" as="geometry" />
        </mxCell>
        <mxCell id="iNKzjEWo3micGkkLstdR-48" value="" style="edgeStyle=elbowEdgeStyle;elbow=vertical;endArrow=classic;html=1;curved=0;rounded=0;endSize=8;startSize=8;exitX=0.176;exitY=0;exitDx=0;exitDy=0;exitPerimeter=0;" edge="1" parent="WIyWlLk6GJQsqaUBKTNV-1" source="iNKzjEWo3micGkkLstdR-44">
          <mxGeometry width="50" height="50" relative="1" as="geometry">
            <mxPoint x="560" y="600" as="sourcePoint" />
            <mxPoint x="520" y="560" as="targetPoint" />
          </mxGeometry>
        </mxCell>
        <mxCell id="iNKzjEWo3micGkkLstdR-49" value="SensorIdentificacao" style="swimlane;fontStyle=1;align=center;verticalAlign=top;childLayout=stackLayout;horizontal=1;startSize=26;horizontalStack=0;resizeParent=1;resizeParentMax=0;resizeLast=0;collapsible=1;marginBottom=0;whiteSpace=wrap;html=1;" vertex="1" parent="WIyWlLk6GJQsqaUBKTNV-1">
          <mxGeometry x="-400" y="310" width="190" height="140" as="geometry" />
        </mxCell>
        <mxCell id="iNKzjEWo3micGkkLstdR-50" value="- tipoObstaculo : String" style="text;strokeColor=none;fillColor=none;align=left;verticalAlign=top;spacingLeft=4;spacingRight=4;overflow=hidden;rotatable=0;points=[[0,0.5],[1,0.5]];portConstraint=eastwest;whiteSpace=wrap;html=1;" vertex="1" parent="iNKzjEWo3micGkkLstdR-49">
          <mxGeometry y="26" width="190" height="26" as="geometry" />
        </mxCell>
        <mxCell id="iNKzjEWo3micGkkLstdR-51" value="" style="line;strokeWidth=1;fillColor=none;align=left;verticalAlign=middle;spacingTop=-1;spacingLeft=3;spacingRight=3;rotatable=0;labelPosition=right;points=[];portConstraint=eastwest;strokeColor=inherit;" vertex="1" parent="iNKzjEWo3micGkkLstdR-49">
          <mxGeometry y="52" width="190" height="8" as="geometry" />
        </mxCell>
        <mxCell id="iNKzjEWo3micGkkLstdR-52" value="+ SensorIdentificacao(raio, tipo)&lt;div&gt;+identificacao(obstaculos, index)&lt;/div&gt;&lt;div&gt;+ getIdentificacao() : String&lt;/div&gt;&lt;div&gt;+ monitorar(ambiente, posX, posY, posZ) : void&lt;/div&gt;" style="text;strokeColor=none;fillColor=none;align=left;verticalAlign=top;spacingLeft=4;spacingRight=4;overflow=hidden;rotatable=0;points=[[0,0.5],[1,0.5]];portConstraint=eastwest;whiteSpace=wrap;html=1;" vertex="1" parent="iNKzjEWo3micGkkLstdR-49">
          <mxGeometry y="60" width="190" height="80" as="geometry" />
        </mxCell>
        <mxCell id="iNKzjEWo3micGkkLstdR-55" value="" style="edgeStyle=elbowEdgeStyle;elbow=horizontal;endArrow=classic;html=1;curved=0;rounded=0;endSize=8;startSize=8;" edge="1" parent="WIyWlLk6GJQsqaUBKTNV-1">
          <mxGeometry width="50" height="50" relative="1" as="geometry">
            <mxPoint x="-210" y="330" as="sourcePoint" />
            <mxPoint x="-160" y="280" as="targetPoint" />
          </mxGeometry>
        </mxCell>
        <mxCell id="iNKzjEWo3micGkkLstdR-56" value="Sensor" style="swimlane;fontStyle=1;align=center;verticalAlign=top;childLayout=stackLayout;horizontal=1;startSize=26;horizontalStack=0;resizeParent=1;resizeParentMax=0;resizeLast=0;collapsible=1;marginBottom=0;whiteSpace=wrap;html=1;" vertex="1" parent="WIyWlLk6GJQsqaUBKTNV-1">
          <mxGeometry x="-160" y="235" width="170" height="100" as="geometry" />
        </mxCell>
        <mxCell id="iNKzjEWo3micGkkLstdR-57" value="# raio : double" style="text;strokeColor=none;fillColor=none;align=left;verticalAlign=top;spacingLeft=4;spacingRight=4;overflow=hidden;rotatable=0;points=[[0,0.5],[1,0.5]];portConstraint=eastwest;whiteSpace=wrap;html=1;" vertex="1" parent="iNKzjEWo3micGkkLstdR-56">
          <mxGeometry y="26" width="170" height="26" as="geometry" />
        </mxCell>
        <mxCell id="iNKzjEWo3micGkkLstdR-58" value="" style="line;strokeWidth=1;fillColor=none;align=left;verticalAlign=middle;spacingTop=-1;spacingLeft=3;spacingRight=3;rotatable=0;labelPosition=right;points=[];portConstraint=eastwest;strokeColor=inherit;" vertex="1" parent="iNKzjEWo3micGkkLstdR-56">
          <mxGeometry y="52" width="170" height="8" as="geometry" />
        </mxCell>
        <mxCell id="iNKzjEWo3micGkkLstdR-59" value="+ Sensor(raio)&lt;div&gt;+ monitorar(ambiente, x, y, z)&lt;/div&gt;" style="text;strokeColor=none;fillColor=none;align=left;verticalAlign=top;spacingLeft=4;spacingRight=4;overflow=hidden;rotatable=0;points=[[0,0.5],[1,0.5]];portConstraint=eastwest;whiteSpace=wrap;html=1;" vertex="1" parent="iNKzjEWo3micGkkLstdR-56">
          <mxGeometry y="60" width="170" height="40" as="geometry" />
        </mxCell>
        <mxCell id="iNKzjEWo3micGkkLstdR-60" value="" style="edgeStyle=elbowEdgeStyle;elbow=horizontal;endArrow=classic;html=1;curved=0;rounded=0;endSize=8;startSize=8;" edge="1" parent="WIyWlLk6GJQsqaUBKTNV-1">
          <mxGeometry width="50" height="50" relative="1" as="geometry">
            <mxPoint x="-210" y="220" as="sourcePoint" />
            <mxPoint x="-160" y="280" as="targetPoint" />
          </mxGeometry>
        </mxCell>
        <mxCell id="iNKzjEWo3micGkkLstdR-61" value="SensorProximidade" style="swimlane;fontStyle=1;align=center;verticalAlign=top;childLayout=stackLayout;horizontal=1;startSize=26;horizontalStack=0;resizeParent=1;resizeParentMax=0;resizeLast=0;collapsible=1;marginBottom=0;whiteSpace=wrap;html=1;" vertex="1" parent="WIyWlLk6GJQsqaUBKTNV-1">
          <mxGeometry x="-410" y="190" width="200" height="60" as="geometry" />
        </mxCell>
        <mxCell id="iNKzjEWo3micGkkLstdR-63" value="" style="line;strokeWidth=1;fillColor=none;align=left;verticalAlign=middle;spacingTop=-1;spacingLeft=3;spacingRight=3;rotatable=0;labelPosition=right;points=[];portConstraint=eastwest;strokeColor=inherit;" vertex="1" parent="iNKzjEWo3micGkkLstdR-61">
          <mxGeometry y="26" width="200" height="8" as="geometry" />
        </mxCell>
        <mxCell id="iNKzjEWo3micGkkLstdR-64" value="+ monitorar(ambiente, x, y, z) : void" style="text;strokeColor=none;fillColor=none;align=left;verticalAlign=top;spacingLeft=4;spacingRight=4;overflow=hidden;rotatable=0;points=[[0,0.5],[1,0.5]];portConstraint=eastwest;whiteSpace=wrap;html=1;" vertex="1" parent="iNKzjEWo3micGkkLstdR-61">
          <mxGeometry y="34" width="200" height="26" as="geometry" />
        </mxCell>
        <mxCell id="iNKzjEWo3micGkkLstdR-65" value="Obstaculos" style="swimlane;fontStyle=1;align=center;verticalAlign=top;childLayout=stackLayout;horizontal=1;startSize=26;horizontalStack=0;resizeParent=1;resizeParentMax=0;resizeLast=0;collapsible=1;marginBottom=0;whiteSpace=wrap;html=1;" vertex="1" parent="WIyWlLk6GJQsqaUBKTNV-1">
          <mxGeometry x="1030" y="190" width="190" height="230" as="geometry" />
        </mxCell>
        <mxCell id="iNKzjEWo3micGkkLstdR-66" value="- posicaoX1 : int&lt;div&gt;- posicaoY1 : int&lt;/div&gt;&lt;div&gt;- posicaoX2 : int&lt;/div&gt;&lt;div&gt;- posicaoY2 : int&lt;/div&gt;&lt;div&gt;- tipo : TiposObstaculo&lt;/div&gt;" style="text;strokeColor=none;fillColor=none;align=left;verticalAlign=top;spacingLeft=4;spacingRight=4;overflow=hidden;rotatable=0;points=[[0,0.5],[1,0.5]];portConstraint=eastwest;whiteSpace=wrap;html=1;" vertex="1" parent="iNKzjEWo3micGkkLstdR-65">
          <mxGeometry y="26" width="190" height="84" as="geometry" />
        </mxCell>
        <mxCell id="iNKzjEWo3micGkkLstdR-67" value="" style="line;strokeWidth=1;fillColor=none;align=left;verticalAlign=middle;spacingTop=-1;spacingLeft=3;spacingRight=3;rotatable=0;labelPosition=right;points=[];portConstraint=eastwest;strokeColor=inherit;" vertex="1" parent="iNKzjEWo3micGkkLstdR-65">
          <mxGeometry y="110" width="190" height="8" as="geometry" />
        </mxCell>
        <mxCell id="iNKzjEWo3micGkkLstdR-68" value="+ Obstaculos(x1, y1, x2, y2, tipo)&lt;div&gt;+ getTipo() : TiposObstaculo&lt;/div&gt;&lt;div&gt;+ getResistencia(): int&lt;/div&gt;&lt;div&gt;+ getPosicaoX1() : int&lt;/div&gt;&lt;div&gt;+ getPosicaoY1() : int&lt;/div&gt;&lt;div&gt;+ getPosicaoX2() : int&lt;/div&gt;&lt;div&gt;+ getPosicaoY2() : int&lt;/div&gt;" style="text;strokeColor=none;fillColor=none;align=left;verticalAlign=top;spacingLeft=4;spacingRight=4;overflow=hidden;rotatable=0;points=[[0,0.5],[1,0.5]];portConstraint=eastwest;whiteSpace=wrap;html=1;" vertex="1" parent="iNKzjEWo3micGkkLstdR-65">
          <mxGeometry y="118" width="190" height="112" as="geometry" />
        </mxCell>
        <mxCell id="iNKzjEWo3micGkkLstdR-69" value="TiposObstaculo" style="swimlane;fontStyle=1;align=center;verticalAlign=top;childLayout=stackLayout;horizontal=1;startSize=26;horizontalStack=0;resizeParent=1;resizeParentMax=0;resizeLast=0;collapsible=1;marginBottom=0;whiteSpace=wrap;html=1;" vertex="1" parent="WIyWlLk6GJQsqaUBKTNV-1">
          <mxGeometry x="1045" y="530" width="160" height="210" as="geometry" />
        </mxCell>
        <mxCell id="iNKzjEWo3micGkkLstdR-70" value="- altura : int&amp;nbsp;&lt;div&gt;- resistencia &amp;gt; int&lt;/div&gt;&lt;div&gt;- bloqueia : boolean&lt;/div&gt;&lt;div&gt;- calor : boolean&lt;/div&gt;" style="text;strokeColor=none;fillColor=none;align=left;verticalAlign=top;spacingLeft=4;spacingRight=4;overflow=hidden;rotatable=0;points=[[0,0.5],[1,0.5]];portConstraint=eastwest;whiteSpace=wrap;html=1;" vertex="1" parent="iNKzjEWo3micGkkLstdR-69">
          <mxGeometry y="26" width="160" height="64" as="geometry" />
        </mxCell>
        <mxCell id="iNKzjEWo3micGkkLstdR-71" value="" style="line;strokeWidth=1;fillColor=none;align=left;verticalAlign=middle;spacingTop=-1;spacingLeft=3;spacingRight=3;rotatable=0;labelPosition=right;points=[];portConstraint=eastwest;strokeColor=inherit;" vertex="1" parent="iNKzjEWo3micGkkLstdR-69">
          <mxGeometry y="90" width="160" height="8" as="geometry" />
        </mxCell>
        <mxCell id="iNKzjEWo3micGkkLstdR-72" value="+ TiposObstaculo(h, res, block, calor)&lt;div&gt;+ getAltura() : int&lt;/div&gt;&lt;div&gt;+ getResistenciaTipo() : int&lt;/div&gt;&lt;div&gt;+ isBloqueador() : boolean&lt;/div&gt;&lt;div&gt;+ emiteCalor() : boolean&lt;/div&gt;&lt;div&gt;+ getTipo() : String&lt;/div&gt;" style="text;strokeColor=none;fillColor=none;align=left;verticalAlign=top;spacingLeft=4;spacingRight=4;overflow=hidden;rotatable=0;points=[[0,0.5],[1,0.5]];portConstraint=eastwest;whiteSpace=wrap;html=1;" vertex="1" parent="iNKzjEWo3micGkkLstdR-69">
          <mxGeometry y="98" width="160" height="112" as="geometry" />
        </mxCell>
        <mxCell id="iNKzjEWo3micGkkLstdR-73" value="Ambiente" style="swimlane;fontStyle=1;align=center;verticalAlign=top;childLayout=stackLayout;horizontal=1;startSize=26;horizontalStack=0;resizeParent=1;resizeParentMax=0;resizeLast=0;collapsible=1;marginBottom=0;whiteSpace=wrap;html=1;" vertex="1" parent="WIyWlLk6GJQsqaUBKTNV-1">
          <mxGeometry x="660" y="60" width="240" height="360" as="geometry" />
        </mxCell>
        <mxCell id="iNKzjEWo3micGkkLstdR-74" value="- largura : int&lt;div&gt;- profundidade : int&lt;/div&gt;&lt;div&gt;- altura : int&lt;/div&gt;&lt;div&gt;- robosAtivos : ArrayList&amp;lt;Robo&amp;gt;&lt;/div&gt;&lt;div&gt;- obstaculos : ArrayList&amp;lt;Obstaculos&amp;gt;&lt;/div&gt;" style="text;strokeColor=none;fillColor=none;align=left;verticalAlign=top;spacingLeft=4;spacingRight=4;overflow=hidden;rotatable=0;points=[[0,0.5],[1,0.5]];portConstraint=eastwest;whiteSpace=wrap;html=1;" vertex="1" parent="iNKzjEWo3micGkkLstdR-73">
          <mxGeometry y="26" width="240" height="84" as="geometry" />
        </mxCell>
        <mxCell id="iNKzjEWo3micGkkLstdR-75" value="" style="line;strokeWidth=1;fillColor=none;align=left;verticalAlign=middle;spacingTop=-1;spacingLeft=3;spacingRight=3;rotatable=0;labelPosition=right;points=[];portConstraint=eastwest;strokeColor=inherit;" vertex="1" parent="iNKzjEWo3micGkkLstdR-73">
          <mxGeometry y="110" width="240" height="8" as="geometry" />
        </mxCell>
        <mxCell id="iNKzjEWo3micGkkLstdR-76" value="+ Ambiente(largura, altura, profundidade)&lt;div&gt;+ adicionarRobo(r) : void&lt;/div&gt;&lt;div&gt;+ removerRobo(r) : void&lt;/div&gt;&lt;div&gt;+ dentroDosLimites(x, y) : boolean&lt;/div&gt;&lt;div&gt;+ dentroDosLimites(x, y, z) : boolean&lt;/div&gt;&lt;div&gt;+ adicionarObstaculo(obstaculo) : void&lt;/div&gt;&lt;div&gt;+ removerObstaculo(obstaculo) : void&lt;/div&gt;&lt;div&gt;+ getResistenciaEm(x, y) : int&lt;/div&gt;&lt;div&gt;+ removerObstaculoEm(x, y) : void&lt;/div&gt;&lt;div&gt;+ temObstaculoEm(x, y) : boolean&lt;/div&gt;&lt;div&gt;+ detectarColisoes() : void&lt;/div&gt;&lt;div&gt;+ getLargura() : int&lt;/div&gt;&lt;div&gt;+ getAltura() : int&lt;/div&gt;&lt;div&gt;+ getProfundidade() : int&lt;/div&gt;&lt;div&gt;+ getRobosAtivos() : ArrayList&amp;lt;Robo&amp;gt;&lt;/div&gt;&lt;div&gt;+ getObstaculos() : ArrayList&amp;lt;Obstaculos&amp;gt;&lt;/div&gt;" style="text;strokeColor=none;fillColor=none;align=left;verticalAlign=top;spacingLeft=4;spacingRight=4;overflow=hidden;rotatable=0;points=[[0,0.5],[1,0.5]];portConstraint=eastwest;whiteSpace=wrap;html=1;" vertex="1" parent="iNKzjEWo3micGkkLstdR-73">
          <mxGeometry y="118" width="240" height="242" as="geometry" />
        </mxCell>
        <mxCell id="iNKzjEWo3micGkkLstdR-86" value="" style="endArrow=diamondThin;endFill=0;endSize=24;html=1;rounded=0;" edge="1" parent="WIyWlLk6GJQsqaUBKTNV-1">
          <mxGeometry width="160" relative="1" as="geometry">
            <mxPoint x="10" y="290" as="sourcePoint" />
            <mxPoint x="130" y="290" as="targetPoint" />
          </mxGeometry>
        </mxCell>
        <mxCell id="iNKzjEWo3micGkkLstdR-87" value="" style="endArrow=diamondThin;endFill=1;endSize=24;html=1;rounded=0;exitX=1.01;exitY=0.113;exitDx=0;exitDy=0;exitPerimeter=0;" edge="1" parent="WIyWlLk6GJQsqaUBKTNV-1" source="iNKzjEWo3micGkkLstdR-6">
          <mxGeometry width="160" relative="1" as="geometry">
            <mxPoint x="500" y="274.38" as="sourcePoint" />
            <mxPoint x="660" y="274.38" as="targetPoint" />
            <Array as="points">
              <mxPoint x="580" y="274.38" />
            </Array>
          </mxGeometry>
        </mxCell>
        <mxCell id="iNKzjEWo3micGkkLstdR-88" value="" style="endArrow=diamondThin;endFill=1;endSize=24;html=1;rounded=0;entryX=1;entryY=0.752;entryDx=0;entryDy=0;entryPerimeter=0;exitX=0;exitY=0.5;exitDx=0;exitDy=0;" edge="1" parent="WIyWlLk6GJQsqaUBKTNV-1" source="iNKzjEWo3micGkkLstdR-68" target="iNKzjEWo3micGkkLstdR-76">
          <mxGeometry width="160" relative="1" as="geometry">
            <mxPoint x="1020" y="360" as="sourcePoint" />
            <mxPoint x="910" y="360" as="targetPoint" />
          </mxGeometry>
        </mxCell>
        <mxCell id="iNKzjEWo3micGkkLstdR-89" value="" style="endArrow=none;html=1;edgeStyle=orthogonalEdgeStyle;rounded=0;entryX=0.5;entryY=0;entryDx=0;entryDy=0;exitX=0.5;exitY=1.036;exitDx=0;exitDy=0;exitPerimeter=0;" edge="1" parent="WIyWlLk6GJQsqaUBKTNV-1" source="iNKzjEWo3micGkkLstdR-68" target="iNKzjEWo3micGkkLstdR-69">
          <mxGeometry relative="1" as="geometry">
            <mxPoint x="1020" y="460" as="sourcePoint" />
            <mxPoint x="1180" y="460" as="targetPoint" />
            <Array as="points">
              <mxPoint x="1125" y="440" />
              <mxPoint x="1125" y="440" />
            </Array>
          </mxGeometry>
        </mxCell>
        <mxCell id="iNKzjEWo3micGkkLstdR-93" value="" style="endArrow=open;endSize=12;dashed=1;html=1;rounded=0;exitX=1;exitY=0.25;exitDx=0;exitDy=0;entryX=-0.005;entryY=0.002;entryDx=0;entryDy=0;entryPerimeter=0;" edge="1" parent="WIyWlLk6GJQsqaUBKTNV-1" source="iNKzjEWo3micGkkLstdR-56" target="iNKzjEWo3micGkkLstdR-6">
          <mxGeometry width="160" relative="1" as="geometry">
            <mxPoint x="50" y="260" as="sourcePoint" />
            <mxPoint x="120" y="260" as="targetPoint" />
          </mxGeometry>
        </mxCell>
      </root>
    </mxGraphModel>
  </diagram>
</mxfile>
